<?xml version="1.0" standalone="no"?>
<!DOCTYPE svg PUBLIC "-//W3C//DTD SVG 20010904//EN"
 "http://www.w3.org/TR/2001/REC-SVG-20010904/DTD/svg10.dtd">
<svg version="1.0" xmlns="http://www.w3.org/2000/svg"
 width="700.000000pt" height="700.000000pt" viewBox="0 0 700.000000 700.000000"
 preserveAspectRatio="xMidYMid meet">
<metadata>
Created by potrace 1.11, written by Peter Selinger 2001-2013
</metadata>
<g transform="translate(0.000000,700.000000) scale(0.100000,-0.100000)"
fill="#000000" stroke="none">
<path d="M3278 6995 c-2 -1 -41 -6 -87 -9 -123 -10 -263 -31 -432 -66 -142
-28 -373 -98 -509 -152 -41 -17 -88 -35 -105 -41 -56 -21 -420 -208 -423 -218
-2 -5 -8 -9 -14 -9 -28 0 -305 -197 -463 -329 -170 -143 -463 -452 -544 -575
-9 -13 -46 -66 -82 -117 -278 -393 -500 -939 -573 -1414 -2 -16 -8 -50 -12
-75 -20 -131 -29 -272 -29 -495 1 -191 7 -339 19 -402 2 -10 7 -45 10 -78 4
-33 9 -67 11 -75 3 -8 7 -31 9 -50 3 -19 14 -77 26 -129 84 -378 215 -710 407
-1034 85 -143 234 -356 312 -447 218 -252 390 -416 601 -573 41 -31 80 -60 85
-64 89 -69 330 -211 500 -293 199 -96 357 -157 574 -220 112 -33 350 -83 451
-95 30 -4 66 -9 80 -11 182 -26 651 -25 840 2 538 78 952 225 1408 499 84 51
269 183 367 263 224 184 454 425 612 642 386 532 613 1129 671 1770 14 153 4
692 -13 720 -2 3 -6 30 -9 60 -3 30 -8 64 -10 75 -2 11 -11 61 -20 110 -56
300 -173 636 -325 930 -340 656 -861 1177 -1515 1515 -308 160 -682 288 -973
334 -33 5 -116 19 -123 21 -3 1 -41 5 -85 10 -44 4 -89 10 -100 12 -25 4 -532
12 -537 8z"/>
</g>
</svg>
